 <svg  version="1.0" xmlns="http://www.w3.org/2000/svg"  width="200.000000pt" height="200.000000pt" viewBox="0 0 200.000000 200.000000"  preserveAspectRatio="xMidYMid meet">  <g transform="translate(0.000000,200.000000) scale(0.100000,-0.100000)" fill="#ff0000" stroke="none"> <path d="M725 1499 c-55 -22 -127 -49 -159 -61 -133 -47 -171 -66 -174 -86 -3 -17 3 -21 30 -24 l33 -3 6 -280 c5 -254 7 -285 26 -333 40 -99 104 -167 202 -215 122 -58 284 -44 383 35 34 27 38 34 38 76 l0 47 -68 0 c-85 0 -138 30 -171 97 -20 43 -21 58 -21 416 0 291 -3 372 -12 371 -7 0 -58 -19 -113 -40z m88 -39 c4 -16 4 -137 0 -267 -7 -267 1 -426 23 -448 8 -7 14 -17 14 -22 0 -15 75 -80 105 -91 17 -6 51 -13 78 -17 38 -5 47 -10 47 -26 0 -14 -9 -21 -32 -26 -27 -5 -29 -7 -13 -13 16 -5 12 -8 -18 -14 -20 -4 -37 -11 -37 -16 0 -13 -138 -33 -184 -26 -22 4 -52 14 -65 23 -13 8 -20 10 -17 4 5 -7 1 -9 -8 -5 -9 3 -14 9 -11 13 2 4 -12 13 -31 20 -18 7 -34 19 -34 27 0 9 -7 14 -17 12 -10 -2 -18 2 -18 9 0 6 -9 21 -21 31 -11 11 -26 34 -34 51 -7 17 -16 31 -20 31 -5 0 -6 8 -3 19 3 10 0 22 -6 25 -8 5 -11 94 -11 277 0 269 0 270 -23 293 l-23 23 24 22 c13 11 29 21 35 21 7 0 6 -4 -3 -10 -9 -6 -10 -10 -3 -10 6 0 18 7 27 15 8 8 19 15 24 15 5 0 31 10 58 22 27 12 55 21 62 20 6 -2 12 1 12 6 0 6 7 13 16 16 8 3 12 2 9 -4 -3 -5 13 -1 37 10 56 24 55 25 61 -10z"/> <path d="M1370 1455 c-180 -69 -216 -86 -218 -104 -3 -17 2 -21 26 -21 16 0 35 -6 41 -14 9 -11 11 -124 9 -435 l-3 -421 193 0 192 0 0 540 c0 426 -3 540 -12 539 -7 0 -110 -38 -228 -84z m210 14 c0 -5 -6 -9 -12 -10 -10 0 -10 -2 0 -6 17 -7 18 -933 0 -951 -8 -8 -57 -12 -154 -12 -118 0 -143 3 -148 15 -3 9 -6 195 -6 415 -1 399 -1 399 -23 415 -12 8 -16 15 -9 15 7 0 11 3 8 8 -2 4 9 15 25 25 17 9 27 12 24 7 -10 -16 4 -12 72 20 34 17 68 30 73 30 6 0 20 5 33 11 12 6 30 15 40 20 11 6 17 5 17 -2 0 -5 5 -7 10 -4 6 4 8 10 5 14 -2 5 7 6 20 3 14 -2 25 -8 25 -13z"/> <path d="M472 528 c-27 -27 -6 -68 35 -68 29 0 48 33 33 60 -12 22 -49 27 -68 8z m62 -13 c9 -25 -5 -45 -30 -45 -14 0 -27 7 -30 15 -10 25 4 45 30 45 13 0 26 -7 30 -15z"/> <path d="M490 502 c0 -10 7 -19 15 -19 8 0 15 9 15 19 0 10 -7 18 -15 18 -8 0 -15 -8 -15 -18z"/> </g> </svg> 